<?xml version="1.0" encoding="UTF-8" standalone="no"?>
<svg xmlnsDc="http://purl.org/dc/elements/1.1/"
     xmlnsCc="http://creativecommons.org/ns#"
     xmlnsRdf="http://www.w3.org/1999/02/22-rdf-syntax-ns#"
     xmlnsSvg="http://www.w3.org/2000/svg"
     xmlns="http://www.w3.org/2000/svg"
     xmlnsXlink="http://www.w3.org/1999/xlink"
     width="128" height="128" version="1.1"
         fill="#fe9090"
         
>
    <path d="m 46.30677,40.263704 c -13.071528,0 -23.65867,10.614301 -23.65867,23.685834 0,0.343533 0.01269,0.665053 0.02713,1.005019 -3.327378,1.210585 -5.704157,4.402921 -5.704157,8.148796 0,4.786759 3.878131,8.664886 8.664886,8.664886 1.461333,0 2.839467,-0.339167 4.047235,-0.977855 4.274176,4.219274 10.143152,6.817827 16.623543,6.817827 l 50.848487,0 c 7.640406,0 13.825796,-6.185388 13.825796,-13.825791 0,-7.640405 -6.18539,-13.852954 -13.825796,-13.852954 -2.387626,0 -4.64031,0.619234 -6.600523,1.684084 -1.590541,-6.870021 -7.721669,-12.005893 -15.075273,-12.005893 -3.188539,0 -6.146557,0.956988 -8.610562,2.607615 C 62.792737,45.079028 55.113503,40.263704 46.306727,40.263704 z"/>
</svg>